<svg xmlns="http://www.w3.org/2000/svg" width="34.004" height="16.002" viewBox="0 0 34.004 16.002"><defs><style>.a{fill:#00bfff;}</style></defs><path class="a" d="M22160.029,21902a5.031,5.031,0,0,1-5.031-5.029v-5.937a5.034,5.034,0,0,1,5.031-5.035h5.938a5.035,5.035,0,0,1,5.035,5.035V21902Zm-2.365-10.967v5.938a2.37,2.37,0,0,0,2.365,2.365h8.307v-8.3a2.371,2.371,0,0,0-2.369-2.369h-5.937A2.371,2.371,0,0,0,22157.664,21891.033Zm3.322,5.965a.983.983,0,0,1-.984-.984v-4.029a.983.983,0,0,1,.984-.984h4.027a.983.983,0,0,1,.986.984V21897Z" transform="translate(-22154.998 -21885.998)"/><g transform="translate(18 4.002)"><path class="a" d="M22156.145,21894a1.144,1.144,0,0,1-1.146-1.141v-5.715a1.149,1.149,0,0,1,1.146-1.146h13.711a1.148,1.148,0,0,1,1.146,1.146v5.715a1.143,1.143,0,0,1-1.146,1.141Zm10.139-6.076a1.639,1.639,0,0,0-.607.416,1.864,1.864,0,0,0-.395.674,2.737,2.737,0,0,0-.139.912,2.818,2.818,0,0,0,.139.924,2,2,0,0,0,.395.686,1.741,1.741,0,0,0,.607.428,2.248,2.248,0,0,0,1.586,0,1.756,1.756,0,0,0,.611-.428,2.074,2.074,0,0,0,.4-.686,2.818,2.818,0,0,0,.139-.924,2.737,2.737,0,0,0-.139-.912,2.036,2.036,0,0,0-.4-.674,1.654,1.654,0,0,0-.611-.416,2.337,2.337,0,0,0-1.586,0Zm-3.479,2.709.719,1.4h1.23l-.9-1.613a1.354,1.354,0,0,0,.49-.461,1.412,1.412,0,0,0,.184-.746,1.4,1.4,0,0,0-.135-.65,1.138,1.138,0,0,0-.367-.418,1.579,1.579,0,0,0-.527-.217,3.426,3.426,0,0,0-.641-.062h-1.58v4.168h1.107v-1.4Zm-5.49,1.4h1.1v-1.318h.512a2.175,2.175,0,0,0,.629-.088,1.6,1.6,0,0,0,.533-.262,1.206,1.206,0,0,0,.367-.451,1.422,1.422,0,0,0,.139-.662,1.439,1.439,0,0,0-.133-.656,1.148,1.148,0,0,0-.361-.43,1.383,1.383,0,0,0-.535-.232,2.963,2.963,0,0,0-.639-.068h-1.613Zm9.17-1.2a1.612,1.612,0,0,1-.213-.9,1.512,1.512,0,0,1,.213-.879.725.725,0,0,1,1.189,0,1.575,1.575,0,0,1,.211.879,1.68,1.68,0,0,1-.211.9.7.7,0,0,1-1.189,0Zm-8.068-.99v-1.1h.461a.844.844,0,0,1,.473.111.455.455,0,0,1,.168.4.567.567,0,0,1-.156.434.66.66,0,0,1-.484.156Zm3.967-.078v-1.023h.395a.978.978,0,0,1,.5.1.393.393,0,0,1,.172.373q0,.551-.668.551Z" transform="translate(-22154.998 -21885.998)"/></g></svg>