<svg xmlns="http://www.w3.org/2000/svg" width="145.004" height="16.002" viewBox="0 0 145.004 16.002"><defs><style>.a{fill:#00bfff;}.b{fill:#1b294b;}</style></defs><path class="a" d="M22160.029,21902a5.031,5.031,0,0,1-5.031-5.029v-5.937a5.034,5.034,0,0,1,5.031-5.035h5.938a5.035,5.035,0,0,1,5.035,5.035V21902Zm-2.365-10.967v5.938a2.37,2.37,0,0,0,2.365,2.365h8.307v-8.3a2.371,2.371,0,0,0-2.369-2.369h-5.937A2.371,2.371,0,0,0,22157.664,21891.033Zm3.322,5.965a.983.983,0,0,1-.984-.984v-4.029a.983.983,0,0,1,.984-.984h4.027a.983.983,0,0,1,.986.984V21897Z" transform="translate(-22154.998 -21885.998)"/><g transform="translate(21.33 2.99)"><path class="b" d="M22017.465,22324.049a3.886,3.886,0,0,1-1.418-1.664,3.751,3.751,0,0,1-1.26-.51,3.622,3.622,0,0,1-.965-.941,4.264,4.264,0,0,1-.609-1.322,6.149,6.149,0,0,1-.213-1.67,5.852,5.852,0,0,1,.285-1.895,3.879,3.879,0,0,1,.807-1.395,3.387,3.387,0,0,1,1.244-.869,4.474,4.474,0,0,1,3.205,0,3.5,3.5,0,0,1,1.244.875,4.036,4.036,0,0,1,.8,1.4,5.8,5.8,0,0,1,.291,1.883,5.125,5.125,0,0,1-.75,2.885,3.473,3.473,0,0,1-2.006,1.49,1.585,1.585,0,0,0,.822.633,3.3,3.3,0,0,0,1.076.18,2.628,2.628,0,0,0,.527-.045,2.926,2.926,0,0,0,.432-.111l.348,1.434a2.742,2.742,0,0,1-.629.2,4.782,4.782,0,0,1-.9.08A4.085,4.085,0,0,1,22017.465,22324.049Zm-1.937-8.143a3.459,3.459,0,0,0-.521,2.035,3.85,3.85,0,0,0,.521,2.168,1.669,1.669,0,0,0,2.816,0,3.85,3.85,0,0,0,.521-2.168,3.459,3.459,0,0,0-.521-2.035,1.72,1.72,0,0,0-2.816,0Zm93.117,6.338a3.088,3.088,0,0,1-1.031-.672,3.252,3.252,0,0,1-.717-1.082,4.233,4.233,0,0,1,0-2.941,3.252,3.252,0,0,1,.717-1.082,3.03,3.03,0,0,1,1.031-.672,3.225,3.225,0,0,1,2.414,0,3.124,3.124,0,0,1,1.732,1.754,4.176,4.176,0,0,1,0,2.941,3.075,3.075,0,0,1-.713,1.082,3.16,3.16,0,0,1-1.02.672,3.225,3.225,0,0,1-2.414,0Zm.3-4.594a3.306,3.306,0,0,0,0,2.738,1.066,1.066,0,0,0,1.814,0,3.192,3.192,0,0,0,0-2.738,1.066,1.066,0,0,0-1.814,0Zm-5.121,4.639a1.833,1.833,0,0,1-.705-.516,2.1,2.1,0,0,1-.4-.807,4.034,4.034,0,0,1-.129-1.043v-2.672h-.9v-1.451l1.008-.078.23-1.76h1.619v1.76h1.586v1.529h-1.586v2.645a1.131,1.131,0,0,0,.236.807.812.812,0,0,0,.615.246,1.618,1.618,0,0,0,.33-.039,2.527,2.527,0,0,0,.3-.1l.309,1.424c-.18.051-.387.107-.627.162a4.1,4.1,0,0,1-.84.078A2.545,2.545,0,0,1,22103.82,22322.289Zm-7.43.039a1.847,1.847,0,0,1-1-1.059,2.116,2.116,0,0,1-.141-.785,1.845,1.845,0,0,1,.879-1.625,6.442,6.442,0,0,1,2.83-.783,1.106,1.106,0,0,0-.264-.7,1.013,1.013,0,0,0-.773-.258,2.42,2.42,0,0,0-.852.162,6.033,6.033,0,0,0-.906.438l-.689-1.289a6.724,6.724,0,0,1,1.338-.627,4.465,4.465,0,0,1,1.48-.24,2.531,2.531,0,0,1,1.949.723,3.25,3.25,0,0,1,.672,2.258v3.775h-1.6l-.146-.678h-.039a4.092,4.092,0,0,1-.9.605,2.291,2.291,0,0,1-1.031.234A2.05,2.05,0,0,1,22096.391,22322.328Zm1.115-2.656a.8.8,0,0,0-.4.662.544.544,0,0,0,.209.477.914.914,0,0,0,.549.15,1.126,1.126,0,0,0,.588-.146,2.743,2.743,0,0,0,.5-.414v-1.154A3.514,3.514,0,0,0,22097.506,22319.672Zm-11.654,2.572a3.029,3.029,0,0,1-1.764-1.76,3.966,3.966,0,0,1-.252-1.467,3.723,3.723,0,0,1,.264-1.441,3.362,3.362,0,0,1,.7-1.092,2.933,2.933,0,0,1,.992-.684,2.845,2.845,0,0,1,1.154-.24,2.922,2.922,0,0,1,1.232.24,2.45,2.45,0,0,1,.879.666,2.791,2.791,0,0,1,.521,1,4.315,4.315,0,0,1,.174,1.254,3.417,3.417,0,0,1-.027.488c-.018.146-.035.258-.051.342h-3.951a1.648,1.648,0,0,0,.59,1.092,1.821,1.821,0,0,0,1.125.342,2.718,2.718,0,0,0,1.424-.436l.65,1.182a4.321,4.321,0,0,1-1.121.543,3.91,3.91,0,0,1-1.217.2A3.686,3.686,0,0,1,22085.852,22322.244Zm.314-4.881a1.623,1.623,0,0,0-.459.98h2.381a1.6,1.6,0,0,0-.252-.936.976.976,0,0,0-.852-.357A1.208,1.208,0,0,0,22086.166,22317.363Zm-14.131,4.881a3.018,3.018,0,0,1-1.77-1.76,3.966,3.966,0,0,1-.252-1.467,3.834,3.834,0,0,1,.264-1.441,3.462,3.462,0,0,1,.7-1.092,2.991,2.991,0,0,1,.992-.684,2.845,2.845,0,0,1,1.154-.24,2.9,2.9,0,0,1,1.232.24,2.353,2.353,0,0,1,.879.666,2.8,2.8,0,0,1,.527,1,4.526,4.526,0,0,1,.168,1.254,4.657,4.657,0,0,1-.021.488c-.023.146-.035.258-.057.342h-3.949a1.619,1.619,0,0,0,.594,1.092,1.8,1.8,0,0,0,1.119.342,2.718,2.718,0,0,0,1.424-.436l.656,1.182a4.329,4.329,0,0,1-1.127.543,3.908,3.908,0,0,1-1.215.2A3.664,3.664,0,0,1,22072.035,22322.244Zm.314-4.881a1.541,1.541,0,0,0-.459.98h2.381a1.6,1.6,0,0,0-.252-.936.988.988,0,0,0-.852-.357A1.187,1.187,0,0,0,22072.35,22317.363Zm-7.867,4.83a3.718,3.718,0,0,1-1.332-.846,3.879,3.879,0,0,1-.9-1.391,5.321,5.321,0,0,1-.324-1.92,5.02,5.02,0,0,1,.342-1.922,4.133,4.133,0,0,1,.918-1.43,3.832,3.832,0,0,1,1.355-.9,4.521,4.521,0,0,1,1.652-.3,3.377,3.377,0,0,1,1.592.348,4.079,4.079,0,0,1,1.1.785l-1.074,1.209a2.645,2.645,0,0,0-.674-.48,2.1,2.1,0,0,0-.912-.174,2.2,2.2,0,0,0-.926.2,2.135,2.135,0,0,0-.723.549,2.44,2.44,0,0,0-.471.881,3.82,3.82,0,0,0-.168,1.17,3.212,3.212,0,0,0,.605,2.084,2.236,2.236,0,0,0,1.826.734,2.009,2.009,0,0,0,.521-.066,1.089,1.089,0,0,0,.414-.2v-1.49h-1.439v-1.6h3.166v3.988a3.772,3.772,0,0,1-1.221.746,4.5,4.5,0,0,1-1.676.307A4.679,4.679,0,0,1,22064.482,22322.193Zm-9.182.051a3.028,3.028,0,0,1-1.771-1.76,3.966,3.966,0,0,1-.252-1.467,3.723,3.723,0,0,1,.27-1.441,3.354,3.354,0,0,1,.7-1.092,2.983,2.983,0,0,1,.99-.684,3.082,3.082,0,0,1,2.387,0,2.375,2.375,0,0,1,.881.666,2.829,2.829,0,0,1,.525,1,4.452,4.452,0,0,1,.174,1.254,4.1,4.1,0,0,1-.027.488c-.021.146-.039.258-.051.342h-3.955a1.627,1.627,0,0,0,.594,1.092,1.8,1.8,0,0,0,1.121.342,2.742,2.742,0,0,0,1.428-.436l.65,1.182a4.212,4.212,0,0,1-1.127.543,3.871,3.871,0,0,1-1.215.2A3.646,3.646,0,0,1,22055.3,22322.244Zm.313-4.881a1.581,1.581,0,0,0-.459.98h2.381a1.6,1.6,0,0,0-.252-.936.98.98,0,0,0-.852-.357A1.2,1.2,0,0,0,22055.613,22317.363Zm-8.061,4.875a2.422,2.422,0,0,1-.852-.684,3.239,3.239,0,0,1-.545-1.082,5.045,5.045,0,0,1-.2-1.455,4.181,4.181,0,0,1,.234-1.447,3.473,3.473,0,0,1,.611-1.086,2.572,2.572,0,0,1,.879-.684,2.28,2.28,0,0,1,1.016-.24,1.924,1.924,0,0,1,.918.189,3.2,3.2,0,0,1,.707.5l-.08-1.014v-2.246h1.955v9.322h-1.6l-.135-.65h-.051a3.221,3.221,0,0,1-.812.578,2.093,2.093,0,0,1-.945.234A2.48,2.48,0,0,1,22047.553,22322.238Zm.777-4.633a2.186,2.186,0,0,0-.357,1.389,2.571,2.571,0,0,0,.307,1.434,1.022,1.022,0,0,0,.887.455,1.252,1.252,0,0,0,.582-.135,1.461,1.461,0,0,0,.5-.465v-2.7a1.578,1.578,0,0,0-.549-.33,1.675,1.675,0,0,0-.543-.1A1.047,1.047,0,0,0,22048.33,22317.605Zm-7.518,4.639a3.148,3.148,0,0,1-1.031-.672,3.244,3.244,0,0,1-.713-1.082,4.263,4.263,0,0,1,0-2.941,3.244,3.244,0,0,1,.713-1.082,3.087,3.087,0,0,1,1.031-.672,3.232,3.232,0,0,1,1.209-.234,3.175,3.175,0,0,1,1.205.234,3.063,3.063,0,0,1,1.025.672,3.153,3.153,0,0,1,.711,1.082,4.147,4.147,0,0,1,0,2.941,3.152,3.152,0,0,1-2.941,1.988A3.232,3.232,0,0,1,22040.813,22322.244Zm.3-4.594a3.247,3.247,0,0,0,0,2.738.985.985,0,0,0,.906.506,1,1,0,0,0,.908-.506,3.247,3.247,0,0,0,0-2.738,1,1,0,0,0-.908-.506A.985.985,0,0,0,22041.115,22317.65Zm-6.949,4.543a3.611,3.611,0,0,1-1.3-.846,3.911,3.911,0,0,1-.879-1.391,5.323,5.323,0,0,1-.32-1.92,5.175,5.175,0,0,1,.336-1.922,4.118,4.118,0,0,1,.9-1.43,3.785,3.785,0,0,1,1.316-.9,4.219,4.219,0,0,1,1.586-.3,3.23,3.23,0,0,1,1.475.336,4.4,4.4,0,0,1,1.1.8l-1.082,1.209a2.857,2.857,0,0,0-.672-.48,1.733,1.733,0,0,0-.789-.174,1.9,1.9,0,0,0-.848.2,2.154,2.154,0,0,0-.684.549,2.725,2.725,0,0,0-.459.881,3.82,3.82,0,0,0-.168,1.17,3.3,3.3,0,0,0,.578,2.084,1.831,1.831,0,0,0,1.523.734,1.918,1.918,0,0,0,.936-.213,2.7,2.7,0,0,0,.717-.555l1.076,1.182a3.5,3.5,0,0,1-2.752,1.277A4.337,4.337,0,0,1,22034.166,22322.193Zm79.969.123v-6.594h1.6l.135,1.154h.049a2.568,2.568,0,0,1,.869-1,1.869,1.869,0,0,1,1.008-.318,2.507,2.507,0,0,1,.461.033,1.432,1.432,0,0,1,.324.1l-.32,1.693a3.258,3.258,0,0,0-.346-.084,2.341,2.341,0,0,0-.371-.023,1.4,1.4,0,0,0-.777.264,1.965,1.965,0,0,0-.674.947v3.826Zm-23.291,0v-6.594h1.6l.135,1.154h.051a2.585,2.585,0,0,1,.861-1,1.9,1.9,0,0,1,1.016-.318,2.526,2.526,0,0,1,.459.033,1.53,1.53,0,0,1,.324.1l-.318,1.693c-.129-.039-.242-.062-.348-.084a2.341,2.341,0,0,0-.371-.023,1.385,1.385,0,0,0-.777.264,1.965,1.965,0,0,0-.674.947v3.826Zm-9.979,0v-3.844a1.768,1.768,0,0,0-.189-.98.713.713,0,0,0-.617-.268,1.144,1.144,0,0,0-.639.168,3.393,3.393,0,0,0-.588.471v4.453h-1.955v-6.594h1.6l.135.834h.051a5.62,5.62,0,0,1,.93-.7,2.31,2.31,0,0,1,1.188-.3,1.748,1.748,0,0,1,1.559.705,3.4,3.4,0,0,1,.486,1.955v4.1Zm-54.127,0-1.658-3.127H22024v3.127h-1.955v-8.672h3.131a6.113,6.113,0,0,1,1.295.133,2.923,2.923,0,0,1,1.059.449,2.244,2.244,0,0,1,.717.828,2.793,2.793,0,0,1,.264,1.289,2.725,2.725,0,0,1-.42,1.58,2.573,2.573,0,0,1-1.121.926l1.967,3.467Zm-2.74-4.678h1.014a1.832,1.832,0,0,0,1.178-.33,1.165,1.165,0,0,0,.4-.965.968.968,0,0,0-.4-.891,2.246,2.246,0,0,0-1.178-.252H22024Z" transform="translate(-22013 -22312.994)"/></g><g transform="translate(129 0.002)"><path class="a" d="M22156.145,21894a1.144,1.144,0,0,1-1.146-1.141v-5.715a1.149,1.149,0,0,1,1.146-1.146h13.711a1.148,1.148,0,0,1,1.146,1.146v5.715a1.143,1.143,0,0,1-1.146,1.141Zm10.139-6.076a1.639,1.639,0,0,0-.607.416,1.864,1.864,0,0,0-.395.674,2.737,2.737,0,0,0-.139.912,2.818,2.818,0,0,0,.139.924,2,2,0,0,0,.395.686,1.741,1.741,0,0,0,.607.428,2.248,2.248,0,0,0,1.586,0,1.756,1.756,0,0,0,.611-.428,2.074,2.074,0,0,0,.4-.686,2.818,2.818,0,0,0,.139-.924,2.737,2.737,0,0,0-.139-.912,2.036,2.036,0,0,0-.4-.674,1.654,1.654,0,0,0-.611-.416,2.337,2.337,0,0,0-1.586,0Zm-3.479,2.709.719,1.4h1.23l-.9-1.613a1.354,1.354,0,0,0,.49-.461,1.412,1.412,0,0,0,.184-.746,1.4,1.4,0,0,0-.135-.65,1.138,1.138,0,0,0-.367-.418,1.579,1.579,0,0,0-.527-.217,3.426,3.426,0,0,0-.641-.062h-1.58v4.168h1.107v-1.4Zm-5.49,1.4h1.1v-1.318h.512a2.175,2.175,0,0,0,.629-.088,1.6,1.6,0,0,0,.533-.262,1.206,1.206,0,0,0,.367-.451,1.422,1.422,0,0,0,.139-.662,1.439,1.439,0,0,0-.133-.656,1.148,1.148,0,0,0-.361-.43,1.383,1.383,0,0,0-.535-.232,2.963,2.963,0,0,0-.639-.068h-1.613Zm9.17-1.2a1.612,1.612,0,0,1-.213-.9,1.512,1.512,0,0,1,.213-.879.725.725,0,0,1,1.189,0,1.575,1.575,0,0,1,.211.879,1.68,1.68,0,0,1-.211.9.7.7,0,0,1-1.189,0Zm-8.068-.99v-1.1h.461a.844.844,0,0,1,.473.111.455.455,0,0,1,.168.4.567.567,0,0,1-.156.434.66.66,0,0,1-.484.156Zm3.967-.078v-1.023h.395a.978.978,0,0,1,.5.1.393.393,0,0,1,.172.373q0,.551-.668.551Z" transform="translate(-22154.998 -21885.998)"/></g></svg>